<svg xmlns="http://www.w3.org/2000/svg" viewBox="0 0 323.56 328.8"><defs><style>.cls-1{fill:#fff;}</style></defs><g id="Layer_2" data-name="Layer 2"><g id="Layer_1-2" data-name="Layer 1"><path class="cls-1" d="M179.78,80.53c0,13-8.06,23.47-18,23.47s-18-10.51-18-23.47,14-25.46,18-46.93C166.28,39.47,179.78,67.57,179.78,80.53Z"/><path class="cls-1" d="M225.58,0H98A17.72,17.72,0,0,0,80.28,17.71V202.92a5,5,0,0,0,5,5c8.2,0,16.26,2.23,16.86,4,0,13.33,22.37,14,26.86,14h65.4c.67.05,1.83.1,3.3.1,5.35,0,14.81-.74,20-5.58a11.47,11.47,0,0,0,3.74-8.56c.59-1.73,8.65-3.94,16.85-4a5,5,0,0,0,5-5V17.71A17.72,17.72,0,0,0,225.58,0ZM98,10H225.58a7.72,7.72,0,0,1,7.7,7.71V120.5H209.41c-.71,0-17.44.12-17.44,10.5,0,6.11-15.07,7.5-20.35,7.5H149.76c-5.28,0-20.36-1.39-20.36-7.5,0-3.07-1.46-7.18-8.42-9.31a29.62,29.62,0,0,0-7.79-1.19H90.28V17.71A7.72,7.72,0,0,1,98,10ZM209.41,147c-.73,0-17.94.12-17.94,11,0,5.28-13.37,7-19.85,7H149.76c-6.48,0-19.86-1.72-19.86-7,0-3.24-1.52-7.57-8.77-9.79a30.25,30.25,0,0,0-7.94-1.21H90.28V123.5h22.91c.13,0,13.21.09,13.21,7.5,0,4.54,4.08,7.69,12.13,9.34a62.09,62.09,0,0,0,11.23,1.16h21.86a62.09,62.09,0,0,0,11.23-1.16c8-1.65,12.12-4.8,12.12-9.34,0-7.4,14.3-7.5,14.44-7.5h23.87V147Zm23.87,4v21.5h-5.93a64.34,64.34,0,0,0-11.63,1.2C204.38,176,202,181.13,202,185c0,3.39-10.7,5.49-18.36,5.5H139.93c-11.38,0-18.36-3.21-18.36-5.5,0-3.87-2.38-9-13.73-11.3a64.26,64.26,0,0,0-11.63-1.2H90.28V151h22.9c.13,0,12.72.11,12.72,7,0,10.69,21.42,11,23.86,11h21.86c2.44,0,23.85-.31,23.85-11,0-6.79,13.81-7,13.94-7Zm-21.86,60.92a1.4,1.4,0,0,1-.55,1.2c-2.64,2.48-11.09,3.14-16,2.82l-.35,0H129c-8.21,0-16.26-2.22-16.86-4,0-10.45-13.76-13.12-21.86-13.78V179.5h5.93c11.37,0,18.36,3.21,18.36,5.5,0,3.87,2.38,9,13.72,11.3a64.41,64.41,0,0,0,11.63,1.2h43.72a64.26,64.26,0,0,0,11.63-1.2C206.61,194,209,188.87,209,185c0-3.39,10.69-5.49,18.35-5.5h5.93v18.64C225.18,198.8,211.42,201.47,211.42,211.92Z"/><path class="cls-1" d="M104,250.58a8,8,0,0,1,1.61,5.09,11.06,11.06,0,0,1-.39,3.05,8.92,8.92,0,0,1-1,2.33,7.38,7.38,0,0,1-1.37,1.61,6.21,6.21,0,0,1-1.44,1l-3.76,1.69v.11a5.42,5.42,0,0,1,1,.27,1.63,1.63,0,0,1,.74.58q2.22,2.76,4.32,4.9c1.4,1.43,2.64,2.66,3.74,3.68s2,1.84,2.65,2.44,1,1,1,1.12a1.59,1.59,0,0,1-.13.66,2.64,2.64,0,0,1-.56.71c-.31.32-.55.55-.71.69a.76.76,0,0,1-.5.21h-.85a1.68,1.68,0,0,1-1.54-.79L105,277.72c-.68-.85-1.65-2-2.88-3.29l-5.73-6.2a2.56,2.56,0,0,0-1.08-.77,4.1,4.1,0,0,0-1.25-.18c0,.56-.06,1.18-.08,1.85s0,1.45,0,2.33v8.64a1.46,1.46,0,0,1-.21.77.84.84,0,0,1-.79.34,4.19,4.19,0,0,1-1-.16,7.87,7.87,0,0,1-1.27-.42A4.86,4.86,0,0,1,89.6,280a.94.94,0,0,1-.48-.71,1.27,1.27,0,0,1,.29-.69c.19-.29.43-.62.71-1a6.14,6.14,0,0,0,.3-1.78c.08-1,.16-2.14.21-3.41s.1-2.53.13-3.77,0-2.17,0-2.81V263c0-1.49,0-2.91-.08-4.27s-.13-2.52-.23-3.47a.7.7,0,0,0-.3-.56,4.16,4.16,0,0,0-.47-.24,1.28,1.28,0,0,1-.45-.34,1.16,1.16,0,0,1-.22-.77,1.58,1.58,0,0,1,.69-1.38,18.43,18.43,0,0,1,2.76-1.62,26.15,26.15,0,0,1,2.7-1.08,16.67,16.67,0,0,1,2.31-.61,10.33,10.33,0,0,1,1.62-.19A5.83,5.83,0,0,1,104,250.58Zm-9,13.62a6.24,6.24,0,0,0,1.25-.53,13.36,13.36,0,0,0,2.33-1.51,10.52,10.52,0,0,0,2.23-2.44,5.81,5.81,0,0,0,1-3.31,5.32,5.32,0,0,0-1.06-3.74,3.46,3.46,0,0,0-2.55-1.08,4.92,4.92,0,0,0-1.9.42,3.47,3.47,0,0,0-1.59,1.27,7,7,0,0,0-.27,1.38q-.1.9-.18,2.07c-.06.78-.1,1.58-.14,2.41s-.05,1.62-.05,2.36v2.28C94.21,264.06,94.52,264.2,95.05,264.2Z"/><path class="cls-1" d="M119.57,260.44c-.06-1.06-.08-2.05-.08-3a11,11,0,0,0-.06-1.25,1.55,1.55,0,0,0-.37-.87,3.74,3.74,0,0,1-.71-1,2.18,2.18,0,0,1-.19-.88,1.7,1.7,0,0,1,.48-.9,8.31,8.31,0,0,1,1.11-1.11,12,12,0,0,1,1.3-.93,2.34,2.34,0,0,1,1-.4,2.66,2.66,0,0,1,1.33.45c.49.3.74.56.74.77a3.77,3.77,0,0,1-.24,1.3,5.7,5.7,0,0,0-.29,1.56c-.14,1.56-.26,4.16-.34,7.82s-.14,8.67-.14,15a14.39,14.39,0,0,1-.39,4.21,1.36,1.36,0,0,1-1.3,1,1.53,1.53,0,0,1-.66-.13,1.14,1.14,0,0,1-.51-.66,7,7,0,0,1-.34-1.62c-.09-.72-.15-1.73-.19-3s-.06-2.91-.08-4.87,0-4.34,0-7.13C119.65,263,119.62,261.5,119.57,260.44Z"/><path class="cls-1" d="M137.32,260.68a55.75,55.75,0,0,0-.4-5.65,2.16,2.16,0,0,0-.16-.58.78.78,0,0,0-.42-.42c-.53-.29-.79-.61-.79-1a1.79,1.79,0,0,1,.92-1.4,12.45,12.45,0,0,1,2.15-1.2,15.52,15.52,0,0,1,2.52-.84,8.63,8.63,0,0,1,2-.32,18.69,18.69,0,0,1,6.52,1.32,4.85,4.85,0,0,1,1.38,1,10.13,10.13,0,0,1,1.25,1.51,8.68,8.68,0,0,1,.9,1.7,4.39,4.39,0,0,1,.34,1.61c0,2.48-.3,4.17-.9,5.09a13.7,13.7,0,0,1-1.38,1.83,23.83,23.83,0,0,1-1.77,1.85,15.89,15.89,0,0,1-1.75,1.46,2.56,2.56,0,0,1-1.25.59,3.08,3.08,0,0,1-1-.22c-.41-.14-.79-.3-1.17-.47a5.33,5.33,0,0,1-.95-.59c-.26-.21-.4-.37-.4-.47a.53.53,0,0,1,.27-.45,2.89,2.89,0,0,1,1-.35,7,7,0,0,0,4-2.23,5.55,5.55,0,0,0,1.49-3.76,12.85,12.85,0,0,0-.19-1.93,8.58,8.58,0,0,0-.66-2.2,5.27,5.27,0,0,0-1.3-1.8,2.92,2.92,0,0,0-2-.75,7,7,0,0,0-2.15.32,9.77,9.77,0,0,0-2,1c-.07.6-.14,1.31-.21,2.14s-.13,1.7-.18,2.6-.1,1.79-.14,2.68,0,1.67,0,2.38v14a10.5,10.5,0,0,1-.66,4.3,2.36,2.36,0,0,1-2.31,1.37c-.6,0-.9-.26-.9-.79a1.84,1.84,0,0,1,.08-.48c.05-.18.12-.41.21-.71a6.72,6.72,0,0,0,.21-1.22,18.68,18.68,0,0,0,.08-2v-7.9Q137.45,264.52,137.32,260.68Z"/><path class="cls-1" d="M164.83,260.68a55.75,55.75,0,0,0-.4-5.65,2.6,2.6,0,0,0-.16-.58.78.78,0,0,0-.42-.42c-.53-.29-.8-.61-.8-1a1.8,1.8,0,0,1,.93-1.4,12.09,12.09,0,0,1,2.15-1.2,15.74,15.74,0,0,1,2.51-.84,8.69,8.69,0,0,1,2-.32,17.09,17.09,0,0,1,3.18.34,17.37,17.37,0,0,1,3.34,1,4.85,4.85,0,0,1,1.38,1,10.07,10.07,0,0,1,1.24,1.51,8.73,8.73,0,0,1,.91,1.7,4.61,4.61,0,0,1,.34,1.61c0,2.48-.3,4.17-.9,5.09a13.7,13.7,0,0,1-1.38,1.83c-.56.65-1.16,1.27-1.77,1.85a16.87,16.87,0,0,1-1.75,1.46,2.6,2.6,0,0,1-1.25.59,3,3,0,0,1-1-.22,12.4,12.4,0,0,1-1.17-.47,5,5,0,0,1-1-.59c-.27-.21-.4-.37-.4-.47a.54.54,0,0,1,.26-.45,3.06,3.06,0,0,1,1-.35,7,7,0,0,0,4-2.23,5.54,5.54,0,0,0,1.48-3.76,12.67,12.67,0,0,0-.18-1.93,9.45,9.45,0,0,0-.66-2.2,5.41,5.41,0,0,0-1.3-1.8,2.92,2.92,0,0,0-2-.75,7,7,0,0,0-2.15.32,9.77,9.77,0,0,0-2,1c-.07.6-.14,1.31-.21,2.14s-.13,1.7-.19,2.6-.1,1.79-.13,2.68-.05,1.67-.05,2.38v14a10.31,10.31,0,0,1-.67,4.3,2.35,2.35,0,0,1-2.3,1.37c-.6,0-.9-.26-.9-.79a1.5,1.5,0,0,1,.08-.48c0-.18.12-.41.21-.71a6.72,6.72,0,0,0,.21-1.22c.05-.51.08-1.19.08-2v-7.9Q165,264.52,164.83,260.68Z"/><path class="cls-1" d="M208.74,277.16a2.6,2.6,0,0,1,1.32-.45q.9,0,.9.69a5,5,0,0,1-.13.77,10.41,10.41,0,0,1-.37,1.27,10.65,10.65,0,0,1-.53,1.22c-.19.37-.4.55-.61.55a2.65,2.65,0,0,1-.87-.13l-1.2-.4a1.39,1.39,0,0,0-.37-.08l-.9-.05-1.72-.05c-.72,0-1.65,0-2.78,0s-2.17,0-2.89,0l-1.72.05a4.17,4.17,0,0,0-.93.11,2.4,2.4,0,0,0-.5.18,3.41,3.41,0,0,1-1.65.37.94.94,0,0,1-.66-.37,7,7,0,0,1-.66-.82,5.13,5.13,0,0,1-.51-.9,2.07,2.07,0,0,1-.18-.61,1.57,1.57,0,0,1,.53-1,2.18,2.18,0,0,0,.53-1.56c0-.57.06-1.26.08-2.07s0-1.77,0-2.86v-7.47a56.2,56.2,0,0,0-.26-6.18,35,35,0,0,0-.56-3.6,8.5,8.5,0,0,0-.55-1.81,1.81,1.81,0,0,1-.27-.82c0-.17.17-.44.51-.79a10,10,0,0,1,1.16-1,11.64,11.64,0,0,1,1.33-.87,2.36,2.36,0,0,1,.92-.37,2.72,2.72,0,0,1,1.17.34,1,1,0,0,1,.69.93,4.14,4.14,0,0,1-.21,1.17,4.86,4.86,0,0,0-.22,1.43q0,2.39-.15,4.71c-.11,1.56-.16,3.08-.16,4.56,0,1,0,1.92,0,2.79s.05,1.88.05,3,0,2.22-.1,3.37-.15,2.22-.22,3.2-.14,1.86-.21,2.6-.1,1.27-.1,1.59.21.43.63.43a1.68,1.68,0,0,0,.56-.11,1.9,1.9,0,0,1,.66-.11l9.59-.37A3.26,3.26,0,0,0,208.74,277.16Z"/><path class="cls-1" d="M233,264.89a1,1,0,0,1-.29.5,6.8,6.8,0,0,1-.71.72,8.47,8.47,0,0,1-.83.64,1.3,1.3,0,0,1-.66.26c-1.59.14-3.06.22-4.42.24s-2.57,0-3.63.08c0,4.24.82,7.43,2.49,9.56s4.31,3.21,7.95,3.21a3.82,3.82,0,0,1,1.56.21.94.94,0,0,1,.4.9c0,.29-.27.57-.8.85a6.53,6.53,0,0,1-2.81.43,17.47,17.47,0,0,1-5.14-.67,11.24,11.24,0,0,1-3.55-1.77,8.68,8.68,0,0,1-2.25-2.57,13.1,13.1,0,0,1-1.25-3.08,17.18,17.18,0,0,1-.53-3.26c-.07-1.09-.1-2.13-.1-3.12a33.84,33.84,0,0,1,1-8.88,17.85,17.85,0,0,1,2.57-5.78,9.15,9.15,0,0,1,3.68-3.12,10.56,10.56,0,0,1,4.32-.93,8.75,8.75,0,0,1,3,.34,1.26,1.26,0,0,1,.8,1.25c0,.78-.34,1.16-1,1.16h-3.13a6.05,6.05,0,0,0-2.46.53,5.32,5.32,0,0,0-2.17,2,13.51,13.51,0,0,0-1.67,4,32.06,32.06,0,0,0-.9,6.52,3.66,3.66,0,0,1,1-.61,3.62,3.62,0,0,1,1.38-.24H232C232.68,264.25,233,264.47,233,264.89Z"/><path class="cls-1" d="M.24,324.22a.7.7,0,0,1,.5-.24,4.09,4.09,0,0,1,1.75.5A5.47,5.47,0,0,0,5,325a3,3,0,0,0,2.31-1,3.18,3.18,0,0,0,.87-2.15,7.77,7.77,0,0,0-.5-2.49c-.34-.95-.75-2-1.25-3.05s-1-2.19-1.61-3.34-1.13-2.26-1.62-3.34-.91-2.09-1.25-3a7.77,7.77,0,0,1-.5-2.44,7.16,7.16,0,0,1,.72-2.57,18.58,18.58,0,0,1,1.9-3.37,14.32,14.32,0,0,1,2.76-2.94A5.16,5.16,0,0,1,10.07,294a9,9,0,0,1,1.09.08,9.58,9.58,0,0,1,1.4.26,5,5,0,0,1,1.22.48.84.84,0,0,1,.53.71c0,.71-.13,1.17-.4,1.38a3.65,3.65,0,0,1-1.88.37q-3.49.1-5,1.62a5,5,0,0,0-1.54,3.73,9.28,9.28,0,0,0,.9,3.48q.9,2.09,2,4.5t2,5a14.65,14.65,0,0,1,.91,4.91,11.45,11.45,0,0,1-.27,1.75A10.54,10.54,0,0,1,10,325a8.94,8.94,0,0,1-1.91,2.52A4.37,4.37,0,0,1,5,328.65a6.59,6.59,0,0,1-1.22-.16,10.49,10.49,0,0,1-1.45-.43A12.27,12.27,0,0,1,1,327.51,1.37,1.37,0,0,1,.37,327c-.1-.32-.19-.63-.26-.93A3.82,3.82,0,0,1,0,325,1.13,1.13,0,0,1,.24,324.22Z"/><path class="cls-1" d="M21.73,307.45a14.74,14.74,0,0,1,2.38-4.93,12.61,12.61,0,0,1,4.22-3.63,12.78,12.78,0,0,1,6.23-1.41,10,10,0,0,1,4,.82,8.82,8.82,0,0,1,3.34,2.55,12.68,12.68,0,0,1,2.28,4.4,20.86,20.86,0,0,1,.85,6.33,16.41,16.41,0,0,1-1.09,6.2,13.4,13.4,0,0,1-2.89,4.53,12.44,12.44,0,0,1-8.9,3.74,10.07,10.07,0,0,1-4-.85,10.45,10.45,0,0,1-3.61-2.52,13.16,13.16,0,0,1-2.6-4.16,15.33,15.33,0,0,1-1-5.77A19.69,19.69,0,0,1,21.73,307.45Zm3.44,7.2a12.59,12.59,0,0,0,1.36,3.58,10,10,0,0,0,2.67,3.1,6.88,6.88,0,0,0,4.35,1.33,8.35,8.35,0,0,0,2.49-.43,6.68,6.68,0,0,0,2.62-1.59,8.78,8.78,0,0,0,2.07-3.2,14.13,14.13,0,0,0,.82-5.23,18.88,18.88,0,0,0-.69-5.51,10.46,10.46,0,0,0-1.8-3.57,6.54,6.54,0,0,0-2.54-2,7.66,7.66,0,0,0-6.68.31A8.48,8.48,0,0,0,27.08,304a11.09,11.09,0,0,0-1.69,3.6,15.92,15.92,0,0,0-.59,4.35A15.48,15.48,0,0,0,25.17,314.65Z"/><path class="cls-1" d="M56.58,296.05a1,1,0,0,1,1-.53,3.07,3.07,0,0,1,1.09.32,11.81,11.81,0,0,1,1.43.77,10,10,0,0,1,1.27.95,1.39,1.39,0,0,1,.56.93,1.57,1.57,0,0,1-.3.87,7.08,7.08,0,0,0-.61,1.46,20.77,20.77,0,0,0-.6,2.86,33.68,33.68,0,0,0-.3,5.09c0,2.26.07,4.23.19,5.91a12.66,12.66,0,0,0,1.09,4.48,4.81,4.81,0,0,0,1.27,1.72,11.72,11.72,0,0,0,2,1.46,10.74,10.74,0,0,0,2.25,1,7,7,0,0,0,2.12.38,6,6,0,0,0,3.44-1,7.81,7.81,0,0,0,2.39-2.52,14.21,14.21,0,0,0,1.51-3.52,28.37,28.37,0,0,0,.82-4c.18-1.36.29-2.68.34-4s.08-2.39.08-3.34c0-1.27,0-2.33-.1-3.18s-.14-1.54-.21-2.07-.15-.93-.22-1.22a2.92,2.92,0,0,1-.1-.68,1,1,0,0,1,.58-1,3.58,3.58,0,0,1,1.43-.26,3.76,3.76,0,0,1,1.83.45,1.45,1.45,0,0,1,.82,1.35c0,.42,0,1.14-.16,2.15s-.24,2.15-.39,3.44-.35,2.66-.56,4.11-.43,2.83-.66,4.16-.47,2.53-.72,3.6a21.75,21.75,0,0,1-.69,2.47,11.89,11.89,0,0,1-3.58,4.95,18,18,0,0,1-4.58,2.73,5,5,0,0,1-1.11.27c-.36,0-.71.05-1.06.05a11.14,11.14,0,0,1-2.44-.32,14.2,14.2,0,0,1-2.73-.93A11.94,11.94,0,0,1,60.47,324a6.19,6.19,0,0,1-1.75-2,13.71,13.71,0,0,1-1.08-3.63q-.45-2.42-.75-5.64t-.42-7.08c-.09-2.56-.13-5.19-.13-7.87A4.59,4.59,0,0,1,56.58,296.05Z"/><path class="cls-1" d="M95.21,305.72q0-1,0-2a3.81,3.81,0,0,0-.72-2.6A4.12,4.12,0,0,0,92.93,300l-1.59-.61a1,1,0,0,1-.71-.95c0-.25.19-.52.58-.8l1.91-1.54a2.47,2.47,0,0,1,.72-.47,1.58,1.58,0,0,1,.55-.11,1.07,1.07,0,0,1,.61.19,3.31,3.31,0,0,1,.72.71q3.07,3.66,6.3,7.32t6,6.67q2.77,3,4.82,5.14t2.79,2.76c.28-1.8.48-3.52.6-5.17s.19-3.33.19-5.06a34.22,34.22,0,0,0-.16-3.6c-.11-1-.21-1.89-.32-2.6s-.21-1.27-.31-1.7a4.19,4.19,0,0,1-.16-1,1,1,0,0,1,.45-.77,2.69,2.69,0,0,1,1-.45,6,6,0,0,1,1.22-.21c.42,0,.81-.06,1.16-.06a1.07,1.07,0,0,1,1,.45,2,2,0,0,1,.26,1,9.18,9.18,0,0,1-.26,1.75c-.18.81-.37,1.9-.58,3.28s-.41,3.1-.59,5.17-.26,4.55-.26,7.45c0,.88,0,1.82.05,2.83s0,2.08,0,3.21a2,2,0,0,1-.47,1.14,7.14,7.14,0,0,1-1.09,1.11,9.15,9.15,0,0,1-1.19.85,2.07,2.07,0,0,1-.8.34c-.17,0-.32-.19-.45-.58l-.45-1.48a15.59,15.59,0,0,0-.77-2,9.36,9.36,0,0,0-1.45-2.22q-2.07-2.44-4.27-4.8l-4.13-4.4q-1.93-2-3.5-3.63c-1-1.06-1.83-1.89-2.36-2.49-.11,1.48-.2,3-.27,4.58s-.11,3.1-.13,4.59,0,2.87-.05,4.16,0,2.38,0,3.26,0,1.56.05,2.36.06,1.4.06,1.82a2.18,2.18,0,0,1-.19.88,1.07,1.07,0,0,1-.77.61l-1.93.48a5.67,5.67,0,0,1-1.25.15c-.67,0-1-.24-1-.74a1.44,1.44,0,0,1,.26-.82c.18-.26.38-.6.61-1a8.28,8.28,0,0,0,.66-1.61,10.86,10.86,0,0,0,.43-2.6l.63-13.09C95.17,307,95.2,306.38,95.21,305.72Z"/><path class="cls-1" d="M137.83,327.72l-.93-.14-3-.37a4.42,4.42,0,0,1-1.3-.29.63.63,0,0,1-.4-.61.89.89,0,0,1,.24-.66c.16-.16.34-.34.53-.56a3.33,3.33,0,0,0,.56-.9,4.64,4.64,0,0,0,.32-1.64q.15-3.18.26-6.52c.07-2.23.11-4.29.11-6.2,0-.78,0-1.62-.08-2.52s-.13-1.79-.21-2.67-.19-1.71-.29-2.47-.22-1.38-.32-1.88a.65.65,0,0,0-.45-.56l-.69-.13a2.63,2.63,0,0,1-.64-.18c-.19-.09-.29-.33-.29-.72a1.18,1.18,0,0,1,.4-1,6.57,6.57,0,0,1,1.77-.72l3.71-1.06c.78-.21,1.41-.36,1.88-.45a6.3,6.3,0,0,1,1.09-.13c.11,0,.53,0,1.27.1a17.66,17.66,0,0,1,2.68.53,22.78,22.78,0,0,1,3.36,1.25,12.18,12.18,0,0,1,3.32,2.25,11.6,11.6,0,0,1,3.52,8.75c0,1.83-.05,3.45-.16,4.85a23.42,23.42,0,0,1-.55,3.73,15.53,15.53,0,0,1-1,3,16.18,16.18,0,0,1-1.59,2.67,6.76,6.76,0,0,1-1.61,1.52,16.52,16.52,0,0,1-2.28,1.29,27.71,27.71,0,0,1-2.57,1.06c-.89.32-1.71.59-2.47.8s-1.42.38-2,.5a6.09,6.09,0,0,1-1.16.19A6.93,6.93,0,0,1,137.83,327.72Zm-.32-9.6c0,1.3,0,2.49,0,3.58a4.84,4.84,0,0,0,.42,2.55,1.69,1.69,0,0,0,1.38.53,15.3,15.3,0,0,0,4.53-.64,7.64,7.64,0,0,0,3.53-2.33,11.65,11.65,0,0,0,2.3-4.61,28.15,28.15,0,0,0,.83-7.48,11.86,11.86,0,0,0-1.17-5.56,12,12,0,0,0-2.73-3.58,10.57,10.57,0,0,0-3.1-1.93,7.32,7.32,0,0,0-2.28-.59,6.4,6.4,0,0,0-2,.35,6.8,6.8,0,0,0-1.7.77v15C137.53,315.52,137.52,316.83,137.51,318.12Z"/><path class="cls-1" d="M165.17,324.22a.72.72,0,0,1,.51-.24,4.16,4.16,0,0,1,1.75.5,5.47,5.47,0,0,0,2.49.51,2.94,2.94,0,0,0,2.3-1,3.15,3.15,0,0,0,.88-2.15,7.55,7.55,0,0,0-.51-2.49c-.33-.95-.75-2-1.24-3.05s-1-2.19-1.62-3.34-1.12-2.26-1.62-3.34-.91-2.09-1.24-3a7.49,7.49,0,0,1-.5-2.44,7.09,7.09,0,0,1,.71-2.57,18.65,18.65,0,0,1,1.91-3.37,13.8,13.8,0,0,1,2.76-2.94A5.14,5.14,0,0,1,175,294a9,9,0,0,1,1.09.08,9.47,9.47,0,0,1,1.41.26,5.09,5.09,0,0,1,1.21.48.82.82,0,0,1,.53.71,1.77,1.77,0,0,1-.39,1.38,3.71,3.71,0,0,1-1.88.37c-2.34.07-4,.61-5,1.62a5,5,0,0,0-1.54,3.73,9.28,9.28,0,0,0,.9,3.48q.92,2.09,2,4.5t2,5a14.88,14.88,0,0,1,.9,4.91,12.36,12.36,0,0,1-.26,1.75,10.92,10.92,0,0,1-1,2.72,9.13,9.13,0,0,1-1.91,2.52,4.39,4.39,0,0,1-3.1,1.12,6.48,6.48,0,0,1-1.22-.16,10.62,10.62,0,0,1-1.46-.43,12,12,0,0,1-1.27-.55,1.37,1.37,0,0,1-.66-.56A9.52,9.52,0,0,1,165,326a4.32,4.32,0,0,1-.11-1A1.13,1.13,0,0,1,165.17,324.22Z"/><path class="cls-1" d="M187.64,307.76a17.66,17.66,0,0,1,2.31-4.9,13.65,13.65,0,0,1,3.26-3.34,17.76,17.76,0,0,1,3.79-2.06,18.17,18.17,0,0,1,3.84-1.07,22.89,22.89,0,0,1,3.37-.29,6,6,0,0,1,3.44.85c.81.57,1.22,1.11,1.22,1.64a1.42,1.42,0,0,1-.32.77,5.64,5.64,0,0,1-.77.88,4.9,4.9,0,0,1-.95.71,1.72,1.72,0,0,1-.82.29.79.79,0,0,1-.61-.37c-.2-.24-.42-.52-.69-.82a4.49,4.49,0,0,0-1-.82,2.6,2.6,0,0,0-1.43-.37,10.48,10.48,0,0,0-4.43.87,11.39,11.39,0,0,0-3.23,2.23,11.8,11.8,0,0,0-2.2,3.05,19.44,19.44,0,0,0-1.32,3.34,21.36,21.36,0,0,0-.67,3,18.48,18.48,0,0,0-.18,2.2,10.81,10.81,0,0,0,.66,3.47,14.15,14.15,0,0,0,1.88,3.64,11.14,11.14,0,0,0,2.94,2.83,6.75,6.75,0,0,0,3.79,1.14A8.83,8.83,0,0,0,203,324a14.9,14.9,0,0,0,2.76-1.49c.8-.54,1.48-1,2-1.48a2.54,2.54,0,0,1,1.33-.66,1,1,0,0,1,.82.32,1.13,1.13,0,0,1,.29.79,1.69,1.69,0,0,1-.35.72,9,9,0,0,1-1,1.13c-.41.43-.87.86-1.38,1.3a8.65,8.65,0,0,1-1.67,1.14,6.36,6.36,0,0,1-1.43.61,18,18,0,0,1-2,.51c-.71.14-1.45.25-2.23.34a19.1,19.1,0,0,1-2.22.13,11.51,11.51,0,0,1-3.45-.63,10.91,10.91,0,0,1-3.71-2.15,12.35,12.35,0,0,1-2.94-4,14.13,14.13,0,0,1-1.19-6.13A23.29,23.29,0,0,1,187.64,307.76Z"/><path class="cls-1" d="M222.28,319.24a4.2,4.2,0,0,0-1.75,1.83l-2.65,4.61a2.61,2.61,0,0,0-.32,1c0,.36-.3.53-.79.53a7.45,7.45,0,0,1-2.39-.31q-.9-.33-.9-.9a1.5,1.5,0,0,1,.53-1,14.84,14.84,0,0,0,1.22-1.43c.64-.81,1.34-1.79,2.12-2.92s1.55-2.31,2.33-3.55,1.54-2.48,2.28-3.74,1.4-2.41,2-3.47,1-2,1.38-2.78a5.09,5.09,0,0,0,.53-1.67c0-.71-.6-1.66-1.8-2.86l-4.35-4.4a6.28,6.28,0,0,0-1.27-1.11.91.91,0,0,1-.53-.74c0-.15.13-.31.4-.51a7.55,7.55,0,0,1,.93-.58,8.79,8.79,0,0,1,1.08-.5,2.56,2.56,0,0,1,.93-.22,9,9,0,0,1,1.17.06,1.65,1.65,0,0,1,.71.23,1.49,1.49,0,0,1,.48.56c.12.25.27.58.45,1a4.84,4.84,0,0,0,.66,1.06c.37.49.75,1,1.14,1.48q4.29,5.2,7.42,8.75c2.08,2.36,4,4.44,5.7,6.22s3.35,3.41,4.93,4.85,3.29,3,5.16,4.67a2.86,2.86,0,0,0,1,.63l.82.27a1.55,1.55,0,0,1,.56.29.86.86,0,0,1,.21.66,1.23,1.23,0,0,1-.29.61,5.67,5.67,0,0,1-.71.8,6.77,6.77,0,0,1-.85.66,1.44,1.44,0,0,1-.75.26h-1.59a.58.58,0,0,1-.58-.37,2.84,2.84,0,0,0-.42-.68,86.62,86.62,0,0,0-7.1-7.8h-14A6.93,6.93,0,0,0,222.28,319.24Zm2.6-5.81L224,315a1.28,1.28,0,0,0-.22.64.44.44,0,0,0,.14.34,1.13,1.13,0,0,0,.66.19c.35,0,.88.06,1.59.08s1.69,0,3,0,2.52,0,3.44,0,1.66,0,2.23-.08a10.94,10.94,0,0,0,1.27-.13,3.14,3.14,0,0,0,.64-.19l-8.33-8.48Z"/><path class="cls-1" d="M259.09,306.68a55.75,55.75,0,0,0-.4-5.65,3.28,3.28,0,0,0-.16-.58.78.78,0,0,0-.42-.42c-.53-.29-.8-.61-.8-1a1.8,1.8,0,0,1,.93-1.4,12.09,12.09,0,0,1,2.15-1.2,15.74,15.74,0,0,1,2.51-.84,8.69,8.69,0,0,1,2-.32,17.09,17.09,0,0,1,3.18.34,17.37,17.37,0,0,1,3.34,1,4.85,4.85,0,0,1,1.38,1,10.07,10.07,0,0,1,1.24,1.51,9.31,9.31,0,0,1,.91,1.7,4.61,4.61,0,0,1,.34,1.61c0,2.48-.3,4.17-.9,5.09a15.67,15.67,0,0,1-1.38,1.83c-.56.65-1.16,1.27-1.77,1.85a16.87,16.87,0,0,1-1.75,1.46,2.6,2.6,0,0,1-1.25.59,3,3,0,0,1-1-.22,12.4,12.4,0,0,1-1.17-.47,5,5,0,0,1-.95-.59c-.27-.21-.4-.37-.4-.47a.54.54,0,0,1,.26-.45,3.06,3.06,0,0,1,1-.35,7,7,0,0,0,4-2.23,5.54,5.54,0,0,0,1.48-3.76,12.67,12.67,0,0,0-.18-1.93,9,9,0,0,0-.67-2.2,5.25,5.25,0,0,0-1.29-1.8,2.92,2.92,0,0,0-2-.75,7,7,0,0,0-2.15.32,9.77,9.77,0,0,0-2,1c-.07.6-.14,1.31-.21,2.14s-.14,1.7-.19,2.6-.1,1.79-.13,2.68-.05,1.67-.05,2.38v14a10.47,10.47,0,0,1-.67,4.3,2.35,2.35,0,0,1-2.3,1.37c-.6,0-.9-.26-.9-.79a1.5,1.5,0,0,1,.08-.48c0-.18.12-.41.21-.71a6.72,6.72,0,0,0,.21-1.22c.05-.51.08-1.19.08-2v-7.9Q259.22,310.52,259.09,306.68Z"/><path class="cls-1" d="M299.77,310.89c0,.11-.1.27-.3.5a6.8,6.8,0,0,1-.71.72,8.4,8.4,0,0,1-.82.64,1.36,1.36,0,0,1-.67.26c-1.59.14-3.06.22-4.42.24s-2.57,0-3.63.08q0,6.36,2.49,9.56t8,3.21a3.79,3.79,0,0,1,1.56.21.92.92,0,0,1,.4.9c0,.29-.27.57-.8.85a6.47,6.47,0,0,1-2.8.43,17.37,17.37,0,0,1-5.14-.67,11.19,11.19,0,0,1-3.56-1.77,8.68,8.68,0,0,1-2.25-2.57,12.66,12.66,0,0,1-1.24-3.08,16.42,16.42,0,0,1-.53-3.26c-.07-1.09-.11-2.13-.11-3.12a34.27,34.27,0,0,1,1-8.88,17.85,17.85,0,0,1,2.57-5.78,9.15,9.15,0,0,1,3.68-3.12,10.56,10.56,0,0,1,4.32-.93,8.86,8.86,0,0,1,3,.34,1.25,1.25,0,0,1,.79,1.25c0,.78-.34,1.16-1,1.16h-3.12a6.1,6.1,0,0,0-2.47.53,5.38,5.38,0,0,0-2.17,2,13.51,13.51,0,0,0-1.67,4,32.06,32.06,0,0,0-.9,6.52,3.72,3.72,0,0,1,1-.61,3.53,3.53,0,0,1,1.37-.24h7.16C299.43,310.25,299.77,310.47,299.77,310.89Z"/><path class="cls-1" d="M309.49,324.22a.71.71,0,0,1,.5-.24,4.09,4.09,0,0,1,1.75.5,5.47,5.47,0,0,0,2.49.51,3,3,0,0,0,2.31-1,3.18,3.18,0,0,0,.87-2.15,7.51,7.51,0,0,0-.5-2.49c-.34-.95-.75-2-1.25-3.05s-1-2.19-1.61-3.34-1.12-2.26-1.62-3.34-.91-2.09-1.24-3a7.54,7.54,0,0,1-.51-2.44,7.16,7.16,0,0,1,.72-2.57,18.65,18.65,0,0,1,1.91-3.37,14,14,0,0,1,2.75-2.94,5.16,5.16,0,0,1,3.26-1.24,9,9,0,0,1,1.09.08,9.34,9.34,0,0,1,1.4.26,5,5,0,0,1,1.22.48.84.84,0,0,1,.53.71c0,.71-.13,1.17-.4,1.38a3.65,3.65,0,0,1-1.88.37q-3.5.1-5,1.62a5,5,0,0,0-1.54,3.73,9.28,9.28,0,0,0,.9,3.48q.9,2.09,2,4.5c.72,1.61,1.39,3.27,2,5a14.88,14.88,0,0,1,.9,4.91,11.45,11.45,0,0,1-.27,1.75,10.18,10.18,0,0,1-1,2.72,8.75,8.75,0,0,1-1.91,2.52,4.35,4.35,0,0,1-3.1,1.12,6.5,6.5,0,0,1-1.21-.16,10.22,10.22,0,0,1-1.46-.43,12,12,0,0,1-1.27-.55,1.36,1.36,0,0,1-.67-.56c-.1-.32-.19-.63-.26-.93a4.32,4.32,0,0,1-.11-1A1.13,1.13,0,0,1,309.49,324.22Z"/></g></g></svg>